<?xml version="1.0" standalone="no"?>
<!DOCTYPE svg PUBLIC "-//W3C//DTD SVG 20010904//EN"
 "http://www.w3.org/TR/2001/REC-SVG-20010904/DTD/svg10.dtd">
<svg version="1.0" xmlns="http://www.w3.org/2000/svg"
 width="256.000000pt" height="256.000000pt" viewBox="0 0 256.000000 256.000000"
 preserveAspectRatio="xMidYMid meet">
<metadata>
Created by potrace 1.14, written by Peter Selinger 2001-2017
</metadata>
<g transform="translate(0.000000,256.000000) scale(0.100000,-0.100000)"
fill="#000000" stroke="none">
<path d="M1110 2529 c-289 -45 -541 -175 -733 -378 -88 -94 -137 -161 -197
-274 -108 -201 -151 -389 -145 -627 6 -244 66 -447 193 -645 40 -63 163 -215
194 -240 7 -6 38 -31 68 -56 160 -132 367 -227 575 -264 85 -15 309 -21 365
-10 13 2 41 7 62 10 20 3 63 13 95 21 32 9 65 17 73 19 8 2 26 8 40 13 14 5
28 10 32 11 5 0 51 23 103 50 255 131 458 341 575 595 40 87 84 223 95 291 3
22 9 58 12 80 14 85 6 335 -11 386 -3 8 -7 30 -10 49 -7 49 -52 181 -91 265
-67 143 -207 324 -340 435 -137 115 -347 214 -540 255 -90 19 -328 27 -415 14z"/>
</g>
</svg>
